STARTFONT 2.1
COMMENT DYJKESLOP
FONT UV
SIZE 11 96 96
FONTBOUNDINGBOX 11 10 0 0
STARTPROPERTIES 6
COPYRIGHT ""
RESOLUTION_X 96
RESOLUTION_Y 96
FONT_ASCENT 11
FONT_DESCENT 0
DEFAULT_CHAR 0
ENDPROPERTIES
CHARS 26
STARTCHAR 032
ENCODING 32
SWIDTH 72 0
DWIDTH 1 0
BBX 0 0 0 0
BITMAP
ENDCHAR
STARTCHAR 033
ENCODING 33
SWIDTH 792 0
DWIDTH 11 0
BBX 11 11 0 0
BITMAP
FFE0
FFE0
EEE0
EEE0
EEE0
EEE0
EEE0
FFE0
EEE0
FFE0
FFE0
ENDCHAR
STARTCHAR 034
ENCODING 34
SWIDTH 792 0
DWIDTH 11 0
BBX 0 0 0 0
BITMAP
ENDCHAR
STARTCHAR 035
ENCODING 35
SWIDTH 792 0
DWIDTH 11 0
BBX 11 7 0 2
BITMAP
8A20
8A20
8A20
8940
8940
8880
7080
ENDCHAR
STARTCHAR 036
ENCODING 36
SWIDTH 792 0
DWIDTH 11 0
BBX 0 0 0 0
BITMAP
ENDCHAR
STARTCHAR 037
ENCODING 37
SWIDTH 792 0
DWIDTH 11 0
BBX 0 0 0 0
BITMAP
ENDCHAR
STARTCHAR 038
ENCODING 38
SWIDTH 792 0
DWIDTH 11 0
BBX 0 0 0 0
BITMAP
ENDCHAR
STARTCHAR 039
ENCODING 39
SWIDTH 792 0
DWIDTH 11 0
BBX 0 0 0 0
BITMAP
ENDCHAR
STARTCHAR 040
ENCODING 40
SWIDTH 792 0
DWIDTH 11 0
BBX 0 0 0 0
BITMAP
ENDCHAR
STARTCHAR 041
ENCODING 41
SWIDTH 792 0
DWIDTH 11 0
BBX 0 0 0 0
BITMAP
ENDCHAR
STARTCHAR 042
ENCODING 42
SWIDTH 792 0
DWIDTH 11 0
BBX 0 0 0 0
BITMAP
ENDCHAR
STARTCHAR 043
ENCODING 43
SWIDTH 792 0
DWIDTH 11 0
BBX 0 0 0 0
BITMAP
ENDCHAR
STARTCHAR 044
ENCODING 44
SWIDTH 792 0
DWIDTH 11 0
BBX 0 0 0 0
BITMAP
ENDCHAR
STARTCHAR 045
ENCODING 45
SWIDTH 792 0
DWIDTH 11 0
BBX 0 0 0 0
BITMAP
ENDCHAR
STARTCHAR 046
ENCODING 46
SWIDTH 792 0
DWIDTH 11 0
BBX 0 0 0 0
BITMAP
ENDCHAR
STARTCHAR 047
ENCODING 47
SWIDTH 792 0
DWIDTH 11 0
BBX 0 0 0 0
BITMAP
ENDCHAR
STARTCHAR 048
ENCODING 48
SWIDTH 792 0
DWIDTH 11 0
BBX 11 11 0 0
BITMAP
FFE0
8020
8E20
9120
9120
9120
9120
9120
8E20
8020
FFE0
ENDCHAR
STARTCHAR 049
ENCODING 49
SWIDTH 792 0
DWIDTH 11 0
BBX 11 11 0 0
BITMAP
FFE0
8020
8420
8C20
8420
8420
8420
8420
8420
FFE0
FFE0
ENDCHAR
STARTCHAR 050
ENCODING 50
SWIDTH 792 0
DWIDTH 11 0
BBX 11 11 0 0
BITMAP
FFE0
8020
9F20
8120
8120
9F20
9020
9020
E0E0
FFE0
FFE0
ENDCHAR
STARTCHAR 051
ENCODING 51
SWIDTH 792 0
DWIDTH 11 0
BBX 11 11 0 0
BITMAP
FFE0
8020
9F20
8120
8120
9F20
8120
FEE0
E0E0
FFE0
FFE0
ENDCHAR
STARTCHAR 052
ENCODING 52
SWIDTH 792 0
DWIDTH 11 0
BBX 11 11 0 0
BITMAP
FFE0
8020
8320
8520
8920
9120
E0E0
FEE0
FEE0
FFE0
FFE0
ENDCHAR
STARTCHAR 053
ENCODING 53
SWIDTH 792 0
DWIDTH 11 0
BBX 11 11 0 0
BITMAP
FFE0
8020
9F20
9020
9020
E0E0
FEE0
FEE0
E0E0
FFE0
FFE0
ENDCHAR
STARTCHAR 054
ENCODING 54
SWIDTH 792 0
DWIDTH 11 0
BBX 11 11 0 0
BITMAP
FFE0
8020
9F20
9020
EFE0
E0E0
EEE0
EEE0
E0E0
FFE0
FFE0
ENDCHAR
STARTCHAR 055
ENCODING 55
SWIDTH 792 0
DWIDTH 11 0
BBX 11 11 0 0
BITMAP
FFE0
8020
9F20
FEE0
FEE0
FEE0
FEE0
FEE0
FEE0
FFE0
FFE0
ENDCHAR
STARTCHAR 056
ENCODING 56
SWIDTH 792 0
DWIDTH 11 0
BBX 11 11 0 0
BITMAP
FFE0
8020
E0E0
EEE0
EEE0
E0E0
EEE0
EEE0
E0E0
FFE0
FFE0
ENDCHAR
STARTCHAR 057
ENCODING 57
SWIDTH 792 0
DWIDTH 11 0
BBX 11 11 0 0
BITMAP
FFE0
FFE0
E0E0
EEE0
EEE0
E0E0
FEE0
FEE0
E0E0
FFE0
FFE0
ENDCHAR
ENDFONT
